<svg width="1512" height="982" viewBox="0 0 1512 982" fill="none" xmlns="http://www.w3.org/2000/svg">
<g clip-path="url(#clip0_4_25)">
<path d="M1512 0H0V982H1512V0Z" fill="#9900F0"/>
<path d="M459.27 866.37C355.981 839.61 248.157 826.844 142.411 842.556C94.0275 849.553 46.305 862.933 0 883.555V982H797.391C687.865 941.247 579.285 898.407 468.909 868.825C465.696 867.965 462.483 867.229 459.27 866.37Z" fill="#B700F2" fill-opacity="0.15"/>
<path d="M1512 0H0V883.555C46.305 862.933 94.0275 849.43 142.411 842.433C248.157 826.844 355.982 839.487 459.27 866.247C462.483 867.106 465.696 867.965 468.909 868.702C579.285 898.162 687.865 941.124 797.391 981.877H1512V0Z" fill="#D500F4" fill-opacity="0.15"/>
<path d="M452.088 713.178C455.112 714.16 458.136 715.264 461.065 716.246C646.474 780.69 828.387 880.118 1021.92 933.023C1186.54 977.949 1352.2 968.866 1512 920.502V0H0V705.69C49.4235 684.086 100.643 671.688 152.24 667.76C253.638 659.659 355.036 680.281 452.088 713.178Z" fill="#F400F5" fill-opacity="0.15"/>
<path d="M0 0V527.089C52.542 504.503 107.257 493.578 161.973 493.087C259.119 492.105 353.997 520.951 444.812 559.986C447.647 561.213 450.387 562.441 453.222 563.668C626.724 639.773 798.809 743.006 984.69 799.471C1161.12 853.113 1340.29 841.697 1511.91 784.004V0H0Z" fill="#F700DB" fill-opacity="0.15"/>
<path d="M171.801 318.413C264.6 325.778 353.147 361.621 437.63 406.916C440.276 408.266 442.827 409.739 445.473 411.09C607.068 498.979 769.325 605.648 947.552 666.041C1135.42 729.626 1328.76 716.123 1512 647.874V0H0V347.628C55.755 323.569 113.967 313.872 171.801 318.413Z" fill="#F900BF" fill-opacity="0.15"/>
<path d="M1512 0H0V167.308C58.8735 141.654 120.676 133.552 181.629 143.74C270.081 158.593 352.201 202.292 430.447 253.724C432.904 255.32 435.267 256.916 437.724 258.512C587.412 358.062 739.84 468.291 910.507 532.489C1109.43 607.367 1317.61 592.637 1512.09 512.113V0H1512Z" fill="#FF16B6" fill-opacity="0.15"/>
<path d="M429.88 105.933C567.661 217.267 710.262 330.566 873.275 398.938C1070.4 481.671 1280.85 473.569 1476.09 392.432C1488.19 387.399 1500.09 382.121 1512.09 376.597V0H272.254C325.174 26.1457 374.976 62.1115 423.171 100.655C425.439 102.373 427.612 104.215 429.88 105.933Z" fill="#FF32AF" fill-opacity="0.15"/>
<path d="M1512 0H470.61C582.214 105.32 700.717 201.924 836.136 265.385C1017.39 350.328 1214.14 357.08 1398.41 291.286C1436.97 277.538 1475.05 260.353 1512.09 240.099V0H1512Z" fill="#FF4DAC" fill-opacity="0.15"/>
<path d="M1320.64 190.017C1365.24 177.005 1409.09 158.961 1451.61 136.253C1472.12 125.328 1492.25 113.175 1512 100.041V0H608.013C667.454 51.1867 730.58 95.9905 798.998 131.833C964.278 218.618 1147.42 240.713 1320.64 190.017Z" fill="#FF69AD" fill-opacity="0.15"/>
<path d="M1242.96 88.871C1314.12 73.4045 1383.67 43.3307 1447.83 0H764.599C913.626 87.1525 1081.74 123.978 1242.96 88.871Z" fill="#FF85B3" fill-opacity="0.15"/>
</g>
<defs>
<clipPath id="clip0_4_25">
<rect width="1512" height="982" fill="white"/>
</clipPath>
</defs>
</svg>
