<svg width="34" height="34" viewBox="0 0 34 34" fill="none" xmlns="http://www.w3.org/2000/svg">
<path d="M13.6666 24.5L23.6667 17L13.6666 9.5V24.5ZM17 0.333328C7.79998 0.333328 0.333313 7.8 0.333313 17C0.333313 26.2 7.79998 33.6667 17 33.6667C26.2 33.6667 33.6667 26.2 33.6667 17C33.6667 7.8 26.2 0.333328 17 0.333328ZM17 30.3333C9.64998 30.3333 3.66665 24.35 3.66665 17C3.66665 9.65 9.64998 3.66666 17 3.66666C24.35 3.66666 30.3333 9.65 30.3333 17C30.3333 24.35 24.35 30.3333 17 30.3333Z" fill="white"/>
</svg>
